<svg id="Layer_1" data-name="Layer 1" xmlns="http://www.w3.org/2000/svg" viewBox="0 0 612 792"><defs><style>.cls-1{fill:#e6e7e8;}.cls-2,.cls-21,.cls-24,.cls-3,.cls-5{font-size:10px;}.cls-10,.cls-16,.cls-2,.cls-21,.cls-24,.cls-25,.cls-3,.cls-5{fill:#231f20;}.cls-10,.cls-16,.cls-2,.cls-25{font-family:HelveticaNeue-Bold, Helvetica Neue;font-weight:700;}.cls-3,.cls-5{font-family:HelveticaNeue, Helvetica Neue;}.cls-4{letter-spacing:-0.07em;}.cls-33,.cls-5{letter-spacing:-0.09em;}.cls-6{letter-spacing:0em;}.cls-7{letter-spacing:-0.11em;}.cls-8{letter-spacing:-0.07em;}.cls-9{letter-spacing:0em;}.cls-10,.cls-16{font-size:14px;}.cls-11{letter-spacing:-0.02em;}.cls-12{letter-spacing:-0.02em;}.cls-13{letter-spacing:0em;}.cls-14{letter-spacing:-0.06em;}.cls-15{letter-spacing:-0.02em;}.cls-16{letter-spacing:-0.06em;}.cls-17{letter-spacing:0em;}.cls-18{letter-spacing:-0.02em;}.cls-19{letter-spacing:-0.07em;}.cls-20{letter-spacing:-0.02em;}.cls-21{font-family:RobotoSlab-Light, Roboto Slab;}.cls-22{letter-spacing:0.02em;}.cls-23{letter-spacing:-0.11em;}.cls-24{font-family:MicrosoftJhengHeiRegular, Microsoft JhengHei;}.cls-25{font-size:26px;}.cls-26{letter-spacing:-0.09em;}.cls-27{letter-spacing:-0.02em;}.cls-28{letter-spacing:-0.11em;}.cls-29{letter-spacing:-0.09em;}.cls-30{letter-spacing:-0.09em;}.cls-31{letter-spacing:-0.05em;}.cls-32{letter-spacing:-0.05em;}.cls-34{letter-spacing:-0.03em;}.cls-35{letter-spacing:0em;}.cls-36{letter-spacing:-0.16em;}.cls-37{letter-spacing:-0.03em;}.cls-38{letter-spacing:-0.03em;}.cls-39{letter-spacing:-0.07em;}.cls-40{letter-spacing:-0.02em;}</style></defs><title>Artboard 1</title><rect class="cls-1" x="35.5" y="162" width="105.11" height="356.5"/><rect class="cls-1" x="35.5" y="541.5" width="105.11" height="230"/><rect class="cls-1" x="220.48" y="24" width="146.51" height="126.5"/><rect class="cls-1" x="426.63" y="24" width="147.72" height="126.5"/><text class="cls-2" transform="translate(35.5 93)">Contact</text><text class="cls-3" transform="translate(35.5 104.5)">jonoyuan@alumni.upenn.edu</text><text class="cls-2" transform="translate(35.5 127.5)">Portfolio</text><text class="cls-3" transform="translate(35.5 139)">jonoyuan.github.io</text><text class="cls-2" transform="translate(208.98 47)">University of Pennsylvania</text><text class="cls-2" transform="translate(208.98 58.5)">Master of City Planning</text><text class="cls-2" transform="translate(320.25 58.5)"><tspan xml:space="preserve">  </tspan></text><text class="cls-3" transform="translate(325.81 58.5)">G<tspan class="cls-4" x="7.59" y="0">P</tspan><tspan x="13.34" y="0">A 3.8</tspan></text><text class="cls-5" transform="translate(208.98 70)">T<tspan class="cls-6" x="4.83" y="0">ransportation Planning</tspan></text><text class="cls-3" transform="translate(208.98 81.5)">Aug 2017– May 2019</text><text class="cls-2" transform="translate(208.98 104.5)">New <tspan class="cls-7" x="24.07" y="0">Y</tspan><tspan x="29.64" y="0">ork University</tspan></text><text class="cls-2" transform="translate(208.98 116)">Bachelor of Arts</text><text class="cls-2" transform="translate(286.37 116)"><tspan xml:space="preserve">  </tspan></text><text class="cls-3" transform="translate(291.93 116)">G<tspan class="cls-8" x="7.59" y="0">P</tspan><tspan class="cls-9" x="13.34" y="0">A 3.7</tspan></text><text class="cls-3" transform="translate(208.98 127.5)">Economics, Informatics</text><text class="cls-3" transform="translate(208.98 139)">Aug 2012– May 2016</text><text class="cls-10" transform="translate(366.98 24) rotate(90)">Education</text><text class="cls-10" transform="translate(574.35 24) rotate(90)">Skills</text><text class="cls-2" transform="translate(415.13 47)">Data</text><text class="cls-3" transform="translate(415.13 58.5)">Excel</text><text class="cls-3" transform="translate(415.13 70)">R</text><text class="cls-3" transform="translate(415.13 81.5)">SQL</text><text class="cls-2" transform="translate(415.13 104.5)">Spatial and </text><text class="cls-2" transform="translate(415.13 116)">Modeling</text><text class="cls-3" transform="translate(415.13 127.5)">A<tspan class="cls-11" x="6.48" y="0">r</tspan><tspan x="9.64" y="0">cGIS</tspan></text><text class="cls-3" transform="translate(415.13 139)">VISUM/VISSIM</text><text class="cls-2" transform="translate(450.96 47)">Computing</text><text class="cls-3" transform="translate(450.96 58.5)">Python</text><text class="cls-3" transform="translate(450.96 70)">JavaScript</text><text class="cls-3" transform="translate(450.96 81.5)">Git, Atom</text><text class="cls-2" transform="translate(493.76 104.5)">Design</text><text class="cls-3" transform="translate(493.76 116)">Adobe C<tspan class="cls-12" x="39.45" y="0">r</tspan><tspan class="cls-13" x="42.6" y="0">eative</tspan></text><text class="cls-3" transform="translate(493.76 127.5)">HTML, CSS</text><text class="cls-3" transform="translate(493.76 139)">MS <tspan class="cls-14" x="17.97" y="0">W</tspan><tspan class="cls-13" x="26.67" y="0">o</tspan><tspan class="cls-12" x="32.41" y="0">r</tspan><tspan x="35.56" y="0">d</tspan></text><text class="cls-2" transform="translate(515.23 47)">Language</text><text class="cls-3" transform="translate(515.23 58.5)">English</text><text class="cls-3" transform="translate(515.23 70)">Mandarin</text><text class="cls-3" transform="translate(515.23 81.5)">F<tspan class="cls-15" x="5.74" y="0">r</tspan><tspan x="8.89" y="0">ench</tspan></text><text class="cls-16" transform="translate(106.05 162)">W<tspan class="cls-17" x="12.43" y="0">ork</tspan></text><text class="cls-10" transform="translate(85 541.5)">P<tspan class="cls-18" x="9.34" y="0">r</tspan><tspan x="14.55" y="0">ojects</tspan></text><text class="cls-2" transform="translate(24 254)">Philadelphia Chinatown </text><text class="cls-2" transform="translate(24 265.5)">Development Corp.</text><text class="cls-3" transform="translate(24 277)">Philadelphia, <tspan class="cls-19" x="60.01" y="0">P</tspan><tspan x="65.75" y="0">A</tspan></text><text class="cls-3" transform="translate(24 288.5)">Sept 2018 – p<tspan class="cls-20" x="62.44" y="0">r</tspan><tspan class="cls-6" x="65.59" y="0">esent</tspan></text><text class="cls-2" transform="translate(152 254)">Community Development Planner</text><text class="cls-3" transform="translate(158.87 265.5)"> </text><text class="cls-21" transform="translate(152 265.5)">–</text><text class="cls-3" transform="translate(161 265.5)">Perform ﬁscal and market analysis to support the new 150-unit mixed use Easte<tspan class="cls-22" x="357.12" y="0">r</tspan><tspan x="360.62" y="0">n </tspan><tspan class="cls-23" x="368.96" y="0">T</tspan><tspan x="373.59" y="0">ower </tspan></text><text class="cls-3" transform="translate(170 277)">Community Center and the 20,000-attendee annual Night Market (</text><text class="cls-24" transform="translate(465.67 277)">夜市</text><text class="cls-3" transform="translate(485.67 277)">)</text><text class="cls-3" transform="translate(158.87 288.5)"> </text><text class="cls-21" transform="translate(152 288.5)">–</text><text class="cls-3" transform="translate(161 288.5)">Serve the Chinatown community th<tspan class="cls-15" x="157.08" y="0">r</tspan><tspan x="160.23" y="0">ough workshops, events, and di</tspan><tspan class="cls-12" x="303.04" y="0">r</tspan><tspan class="cls-13" x="306.19" y="0">ect engagement</tspan></text><text class="cls-3" transform="translate(158.87 300)"> </text><text class="cls-21" transform="translate(152 300)">–</text><text class="cls-3" transform="translate(161 300)">Assess parking needs th<tspan class="cls-20" x="109.47" y="0">r</tspan><tspan x="112.62" y="0">ough policy </tspan><tspan class="cls-15" x="167.26" y="0">r</tspan><tspan x="170.41" y="0">eview and a survey of 100+ Chinatown stakeholders</tspan></text><text class="cls-25" transform="translate(24.91 47)">Jonathan</text><text class="cls-25" transform="translate(79.32 70)"><tspan class="cls-8">Y</tspan><tspan x="15.44" y="0">uan</tspan></text><text class="cls-2" transform="translate(24 323)">O<tspan class="cls-20" x="7.78" y="0">f</tspan><tspan class="cls-9" x="10.93" y="0">fice of </tspan><tspan class="cls-26" x="43.52" y="0">T</tspan><tspan class="cls-6" x="48.71" y="0">ransportation, </tspan></text><text class="cls-2" transform="translate(24 334.5)">Infrastructu<tspan class="cls-20" x="55.74" y="0">r</tspan><tspan x="59.45" y="0">e, and </tspan></text><text class="cls-2" transform="translate(24 346)">Sustainability</text><text class="cls-3" transform="translate(24 357.5)">Philadelphia, <tspan class="cls-19" x="60.01" y="0">P</tspan><tspan x="65.75" y="0">A</tspan></text><text class="cls-3" transform="translate(24 369)">Sept 2018 – Dec 2018</text><text class="cls-2" transform="translate(152 323)"><tspan class="cls-11">V</tspan><tspan x="6.13" y="0">ision Ze</tspan><tspan class="cls-20" x="43.7" y="0">r</tspan><tspan x="47.41" y="0">o Consultant</tspan></text><text class="cls-3" transform="translate(158.87 334.5)"> </text><text class="cls-21" transform="translate(152 334.5)">–</text><text class="cls-3" transform="translate(161 334.5)">Advise the City of Philadelphia on <tspan class="cls-12" x="152.8" y="0">V</tspan><tspan x="158.73" y="0">ision Ze</tspan><tspan class="cls-12" x="193.73" y="0">r</tspan><tspan class="cls-13" x="196.88" y="0">o policy aiming to eliminate trafﬁc deaths by 2030</tspan></text><text class="cls-3" transform="translate(158.87 346)"> </text><text class="cls-21" transform="translate(152 346)">–</text><text class="cls-3" transform="translate(161 346)">Compile, analyze, and visualize crash data on the High Injury Network using R and A<tspan class="cls-12" x="376.69" y="0">r</tspan><tspan class="cls-13" x="379.84" y="0">cGIS</tspan></text><text class="cls-3" transform="translate(158.87 357.5)"> </text><text class="cls-21" transform="translate(152 357.5)">–</text><text class="cls-3" transform="translate(161 357.5)">P<tspan class="cls-27" x="6.48" y="0">r</tspan><tspan class="cls-9" x="9.64" y="0">epa</tspan><tspan class="cls-20" x="26.31" y="0">r</tspan><tspan class="cls-6" x="29.46" y="0">e strategies to build consensus for </tspan><tspan class="cls-12" x="186.15" y="0">V</tspan><tspan x="192.08" y="0">ision Ze</tspan><tspan class="cls-12" x="227.08" y="0">r</tspan><tspan class="cls-13" x="230.23" y="0">o among community members and the city</tspan></text><text class="cls-3" transform="translate(158.87 369)"> </text><text class="cls-21" transform="translate(152 369)">–</text><text class="cls-3" transform="translate(161 369)">P<tspan class="cls-27" x="6.48" y="0">r</tspan><tspan class="cls-9" x="9.64" y="0">esent 40+ new planning and safety practices for Philadelphia city agencies</tspan></text><text class="cls-2" transform="translate(24 737)">Bike New <tspan class="cls-7" x="47.95" y="0">Y</tspan><tspan x="53.52" y="0">ork</tspan></text><text class="cls-3" transform="translate(24 748.5)">New <tspan class="cls-28" x="22.95" y="0">Y</tspan><tspan x="28.32" y="0">ork, NY</tspan></text><text class="cls-3" transform="translate(24 760)">Sept 2015 – May 2017</text><text class="cls-2" transform="translate(24 679.5)">Bike &amp; Build</text><text class="cls-3" transform="translate(24 691)">Southe<tspan class="cls-22" x="31.86" y="0">r</tspan><tspan x="35.36" y="0">n US</tspan></text><text class="cls-3" transform="translate(24 702.5)">May 2018 – Aug 2018</text><text class="cls-2" transform="translate(152 679.5)">Ride<tspan class="cls-29" x="21.65" y="0">r</tspan><tspan class="cls-9" x="24.63" y="0">, Fundraise</tspan><tspan class="cls-30" x="77.41" y="0">r</tspan><tspan class="cls-9" x="80.38" y="0">, and </tspan><tspan class="cls-31" x="106.5" y="0">V</tspan><tspan x="112.25" y="0">olunteer</tspan></text><text class="cls-3" transform="translate(158.87 691)"> </text><text class="cls-21" transform="translate(152 691)">–</text><text class="cls-3" transform="translate(161 691)">Cycled 4,000 miles over eleven weeks f<tspan class="cls-12" x="175.95" y="0">r</tspan><tspan x="179.1" y="0">om Jacksonville, FL to Monte</tspan><tspan class="cls-12" x="310.44" y="0">r</tspan><tspan class="cls-13" x="313.59" y="0">e</tspan><tspan class="cls-4" x="318.96" y="0">y</tspan><tspan class="cls-13" x="323.23" y="0">, CA</tspan></text><text class="cls-3" transform="translate(158.87 702.5)"> </text><text class="cls-21" transform="translate(152 702.5)">–</text><text class="cls-3" transform="translate(161 702.5)">Helped raise $500,000 for a<tspan class="cls-20" x="123.55" y="0">f</tspan><tspan x="126.33" y="0">fo</tspan><tspan class="cls-20" x="135.03" y="0">r</tspan><tspan class="cls-9" x="138.18" y="0">dable housing, distributed to local non-p</tspan><tspan class="cls-15" x="319.33" y="0">r</tspan><tspan x="322.48" y="0">oﬁts</tspan></text><text class="cls-3" transform="translate(158.87 714)"> </text><text class="cls-21" transform="translate(152 714)">–</text><text class="cls-3" transform="translate(161 714)">Constructed a<tspan class="cls-20" x="63.53" y="0">f</tspan><tspan x="66.31" y="0">fo</tspan><tspan class="cls-20" x="75.01" y="0">r</tspan><tspan x="78.16" y="0">dable housing in communities of need in nine US cities</tspan></text><text class="cls-2" transform="translate(152 737)"><tspan class="cls-32">V</tspan><tspan x="5.76" y="0">olunteer Marshal and Instructor</tspan></text><text class="cls-3" transform="translate(158.87 748.5)"> </text><text class="cls-21" transform="translate(152 748.5)">–</text><text class="cls-3" transform="translate(161 748.5)">Marshalled over 30,000 riders in the Five Bo<tspan class="cls-15" x="196.52" y="0">r</tspan><tspan x="199.67" y="0">o Bike </tspan><tspan class="cls-23" x="230.6" y="0">T</tspan><tspan x="235.24" y="0">our and other local events</tspan></text><text class="cls-3" transform="translate(158.87 760)"> </text><text class="cls-21" transform="translate(152 760)">–</text><text class="cls-3" transform="translate(161 760)">Gave instruction on bicycle use, <tspan class="cls-15" x="145.58" y="0">r</tspan><tspan x="148.73" y="0">epai</tspan><tspan class="cls-26" x="167.62" y="0">r</tspan><tspan class="cls-13" x="170.03" y="0">, and maintenance as part of BNY</tspan><tspan class="cls-19" x="321.17" y="0">’</tspan><tspan x="323.21" y="0">s f</tspan><tspan class="cls-15" x="333.96" y="0">r</tspan><tspan x="337.1" y="0">ee p</tspan><tspan class="cls-15" x="356.55" y="0">r</tspan><tspan x="359.7" y="0">ogramming</tspan></text><text class="cls-2" transform="translate(24 622)">P<tspan class="cls-27" x="6.67" y="0">r</tspan><tspan class="cls-9" x="10.39" y="0">ofessor Erick Guerra </tspan></text><text class="cls-2" transform="translate(135.85 622)"> </text><text class="cls-3" transform="translate(24 633.5)">Uni<tspan class="cls-8" x="15" y="0">v</tspan><tspan class="cls-9" x="19.27" y="0">. of Pennsylvania</tspan></text><text class="cls-3" transform="translate(24 645)">Philadelphia, <tspan class="cls-19" x="60.01" y="0">P</tspan><tspan x="65.75" y="0">A</tspan></text><text class="cls-3" transform="translate(24 656.5)">Sept 2017 – Mar 2018</text><text class="cls-2" transform="translate(152 622)"><tspan class="cls-29">T</tspan><tspan x="5.2" y="0">ransportation Resea</tspan><tspan class="cls-20" x="102.23" y="0">r</tspan><tspan x="105.94" y="0">cher</tspan></text><text class="cls-3" transform="translate(158.87 633.5)"> </text><text class="cls-21" transform="translate(152 633.5)">–</text><text class="cls-3" transform="translate(161 633.5)">Resea<tspan class="cls-20" x="27.96" y="0">r</tspan><tspan x="31.11" y="0">ched and analyzed crashes and commute patte</tspan><tspan class="cls-22" x="243.58" y="0">r</tspan><tspan x="247.08" y="0">ns in 100 US and Mexico met</tspan><tspan class="cls-15" x="378.97" y="0">r</tspan><tspan x="382.12" y="0">o a</tspan><tspan class="cls-15" x="396.01" y="0">r</tspan><tspan x="399.16" y="0">eas</tspan></text><text class="cls-3" transform="translate(158.87 645)"> </text><text class="cls-21" transform="translate(152 645)">–</text><text class="cls-3" transform="translate(161 645)"><tspan class="cls-33">T</tspan><tspan class="cls-6" x="4.83" y="0">ranslated technical US Census, and Mexico Inte</tspan><tspan class="cls-15" x="219.31" y="0">r</tspan><tspan x="222.46" y="0">censal data into non-technical narrative</tspan></text><text class="cls-3" transform="translate(158.87 656.5)"> </text><text class="cls-21" transform="translate(152 656.5)">–</text><text class="cls-3" transform="translate(161 656.5)">Performed spatial, raste<tspan class="cls-26" x="106.86" y="0">r</tspan><tspan x="109.27" y="0">, and statistical analysis using R, Python, and A</tspan><tspan class="cls-12" x="320.42" y="0">r</tspan><tspan class="cls-13" x="323.58" y="0">cGIS</tspan></text><text class="cls-2" transform="translate(152 392)"><tspan class="cls-29">T</tspan><tspan x="5.2" y="0">ransportation Planner</tspan></text><text class="cls-3" transform="translate(158.87 403.5)"> </text><text class="cls-21" transform="translate(152 403.5)">–</text><text class="cls-3" transform="translate(161 403.5)">Independently executed a capital assessment study to di<tspan class="cls-12" x="254.33" y="0">r</tspan><tspan x="257.48" y="0">ect investment in EV cha</tspan><tspan class="cls-34" x="367.69" y="0">r</tspan><tspan class="cls-13" x="370.74" y="0">ging, </tspan></text><text class="cls-3" transform="translate(170 415)">integrating transportation policy conce<tspan class="cls-22" x="172.24" y="0">r</tspan><tspan class="cls-35" x="175.74" y="0">ning complete st</tspan><tspan class="cls-12" x="250.21" y="0">r</tspan><tspan class="cls-13" x="253.36" y="0">eets, climate action, and safety</tspan></text><text class="cls-3" transform="translate(158.87 426.5)"> </text><text class="cls-21" transform="translate(152 426.5)">–</text><text class="cls-3" transform="translate(161 426.5)">Supported multimodal planning and engineering p<tspan class="cls-15" x="223.78" y="0">r</tspan><tspan x="226.93" y="0">ojects, including signal timing for Bus Rapid </tspan></text><text class="cls-3" transform="translate(170 438)"><tspan class="cls-33">T</tspan><tspan class="cls-6" x="4.83" y="0">ransit, dockless bike sha</tspan><tspan class="cls-20" x="115.04" y="0">r</tspan><tspan x="118.19" y="0">e and electric scooter permits, and interactive webmaps </tspan></text><text class="cls-3" transform="translate(158.87 449.5)"> </text><text class="cls-21" transform="translate(152 449.5)">–</text><text class="cls-3" transform="translate(161 449.5)">Mapped and analyzed transportation networks for ConnectS<tspan class="cls-36" x="270.4" y="0">F</tspan><tspan x="274.57" y="0">, a 50-year transportation plan</tspan></text><text class="cls-2" transform="translate(24 392)">San<tspan class="cls-37" x="18.16" y="0"> </tspan><tspan class="cls-9" x="20.69" y="0">Francisco</tspan><tspan class="cls-37" x="67.72" y="0"> </tspan><tspan class="cls-9" x="70.25" y="0">Municipal </tspan></text><text class="cls-2" transform="translate(24 403.5)"><tspan class="cls-26">T</tspan><tspan x="5.19" y="0">ransportation Agency</tspan></text><text class="cls-3" transform="translate(24 415)">San Francisco, CA</text><text class="cls-3" transform="translate(24 426.5)">May 2018 – Aug 2018</text><text class="cls-2" transform="translate(152.28 185)">GIS/Fo<tspan class="cls-20" x="32.78" y="0">r</tspan><tspan x="36.49" y="0">ecasting Analyst</tspan></text><text class="cls-3" transform="translate(159.15 196.5)"> </text><text class="cls-21" transform="translate(152.28 196.5)">–</text><text class="cls-3" transform="translate(161.28 196.5)"><tspan class="cls-12">W</tspan><tspan class="cls-6" x="9.08" y="0">rite machine lea</tspan><tspan class="cls-22" x="79.65" y="0">r</tspan><tspan x="83.15" y="0">ning and </tspan><tspan class="cls-27" x="124.65" y="0">r</tspan><tspan x="127.81" y="0">eg</tspan><tspan class="cls-20" x="138.92" y="0">r</tspan><tspan x="142.07" y="0">ession models to p</tspan><tspan class="cls-12" x="226.91" y="0">r</tspan><tspan x="230.06" y="0">edict planning issues, including trafﬁc </tspan></text><text class="cls-3" transform="translate(170.28 208)">congestion, ﬂood and wildﬁ<tspan class="cls-20" x="123.15" y="0">r</tspan><tspan class="cls-6" x="126.3" y="0">e risk, housing code violations, and bike sha</tspan><tspan class="cls-15" x="323.94" y="0">r</tspan><tspan x="327.08" y="0">e </tspan><tspan class="cls-15" x="335.23" y="0">r</tspan><tspan x="338.38" y="0">ebalancing</tspan></text><text class="cls-3" transform="translate(159.15 219.5)"> </text><text class="cls-21" transform="translate(152.28 219.5)">–</text><text class="cls-3" transform="translate(161.28 219.5)">Optimize p<tspan class="cls-12" x="48.53" y="0">r</tspan><tspan x="51.68" y="0">edictions and wrangle la</tspan><tspan class="cls-38" x="160.2" y="0">r</tspan><tspan x="163.25" y="0">ge public data sets (1M+ </tspan><tspan class="cls-15" x="276.69" y="0">r</tspan><tspan x="279.83" y="0">ows) in R, JavaScript, and A</tspan><tspan class="cls-12" x="405.58" y="0">r</tspan><tspan x="408.73" y="0">cGIS</tspan></text><text class="cls-3" transform="translate(159.15 231)"> </text><text class="cls-21" transform="translate(152.28 231)">–</text><text class="cls-3" transform="translate(161.28 231)">Build video p<tspan class="cls-20" x="58.53" y="0">r</tspan><tspan x="61.68" y="0">esentations, visualizations, and interactive webmaps to convey ﬁndings</tspan></text><text class="cls-2" transform="translate(24.28 185)">P<tspan class="cls-27" x="6.67" y="0">r</tspan><tspan class="cls-9" x="10.39" y="0">ofessor Ken Steif</tspan></text><text class="cls-3" transform="translate(24.28 196.5)">Uni<tspan class="cls-39" x="15" y="0">v</tspan><tspan x="19.26" y="0">. of Pennsylvania</tspan></text><text class="cls-3" transform="translate(24.28 208)">Philadelphia, <tspan class="cls-19" x="60.01" y="0">P</tspan><tspan x="65.75" y="0">A</tspan></text><text class="cls-3" transform="translate(24.28 219.5)">Sept 2018 – p<tspan class="cls-20" x="62.44" y="0">r</tspan><tspan class="cls-6" x="65.59" y="0">esent</tspan></text><text class="cls-2" transform="translate(152 564.5)">Gender and Policy Resea<tspan class="cls-15" x="119.8" y="0">r</tspan><tspan class="cls-9" x="123.51" y="0">cher</tspan></text><text class="cls-3" transform="translate(158.87 576)"> </text><text class="cls-21" transform="translate(152 576)">–</text><text class="cls-3" transform="translate(161 576)">Build <tspan class="cls-20" x="25.56" y="0">r</tspan><tspan x="28.71" y="0">esea</tspan><tspan class="cls-12" x="49.82" y="0">r</tspan><tspan class="cls-6" x="52.97" y="0">ch on diversit</tspan><tspan class="cls-19" x="112.98" y="0">y</tspan><tspan class="cls-9" x="117.24" y="0">, inclusion, and equity in planning, economic, and housing policy</tspan></text><text class="cls-3" transform="translate(158.87 587.5)"> </text><text class="cls-21" transform="translate(152 587.5)">–</text><text class="cls-3" transform="translate(161 587.5)">Interview transgender subjects in mixed-methods study measuring travel st<tspan class="cls-12" x="335.8" y="0">r</tspan><tspan class="cls-13" x="338.96" y="0">ess </tspan></text><text class="cls-3" transform="translate(158.87 599)"> </text><text class="cls-21" transform="translate(152 599)">–</text><text class="cls-3" transform="translate(161 599)"><tspan class="cls-33">T</tspan><tspan class="cls-6" x="4.83" y="0">rack and model st</tspan><tspan class="cls-20" x="85.23" y="0">r</tspan><tspan x="88.38" y="0">ess levels on during travel using GPS, eye tracking, and biometrics</tspan></text><text class="cls-2" transform="translate(24 564.5)">SexGen Policy Lab</text><text class="cls-3" transform="translate(24 576)">Uni<tspan class="cls-8" x="15" y="0">v</tspan><tspan class="cls-9" x="19.27" y="0">. of Pennsylvania</tspan></text><text class="cls-3" transform="translate(24 587.5)">Philadelphia, <tspan class="cls-19" x="60.01" y="0">P</tspan><tspan x="65.75" y="0">A</tspan></text><text class="cls-3" transform="translate(24 599)">Sept 2018 – p<tspan class="cls-20" x="62.44" y="0">r</tspan><tspan class="cls-6" x="65.59" y="0">esent</tspan></text><text class="cls-2" transform="translate(24 472.5)">African Cultural Alliance </text><text class="cls-2" transform="translate(24 484)">of North America</text><text class="cls-3" transform="translate(24 495.5)">Philadelphia, <tspan class="cls-19" x="60.01" y="0">P</tspan><tspan x="65.75" y="0">A</tspan></text><text class="cls-3" transform="translate(24 507)">Jan 2018 – May 2018</text><text class="cls-2" transform="translate(152 472.5)">Planning Consultant</text><text class="cls-3" transform="translate(158.87 484)"> </text><text class="cls-21" transform="translate(152 484)">–</text><text class="cls-3" transform="translate(161 484)">C<tspan class="cls-11" x="7.22" y="0">r</tspan><tspan class="cls-6" x="10.38" y="0">eated a comp</tspan><tspan class="cls-20" x="72.07" y="0">r</tspan><tspan class="cls-6" x="75.22" y="0">ehensive plan for Southwest Philadelphia, population 60,000</tspan></text><text class="cls-3" transform="translate(158.87 495.5)"> </text><text class="cls-21" transform="translate(152 495.5)">–</text><text class="cls-3" transform="translate(161 495.5)">Analyzed and p<tspan class="cls-20" x="69.08" y="0">r</tspan><tspan class="cls-6" x="72.23" y="0">esented data on demographics, econom</tspan><tspan class="cls-19" x="253.4" y="0">y</tspan><tspan class="cls-13" x="257.66" y="0">, envi</tspan><tspan class="cls-40" x="281.37" y="0">r</tspan><tspan x="284.53" y="0">onment, and community</tspan></text><text class="cls-3" transform="translate(158.87 507)"> </text><text class="cls-21" transform="translate(152 507)">–</text><text class="cls-3" transform="translate(161 507)">Designed graphs, charts, and maps using A<tspan class="cls-15" x="195.43" y="0">r</tspan><tspan x="198.58" y="0">cGIS, Adobe InDesign, and Adobe Illustrator</tspan></text></svg>